<svg id="Layer_2" data-name="Layer 2" xmlns="http://www.w3.org/2000/svg" viewBox="0 0 391.43 294.25"><title>Untitled-1</title><path d="M390,213.47c2.8-9.26,5.87-17.84,7.9-26.66a49.51,49.51,0,0,0,.88-16.25c-0.71-6.41-4.45-9.69-10.89-9.3A75.45,75.45,0,0,0,367.46,165c-29.9,10.6-59.6,21.78-89.43,32.6-3.63,1.32-5.1,3-5.06,7.12,0.24,23.16.11,46.33,0.11,69.5,0,1.63,0,3.25,0,5.53L316.34,264c16.54-6,33-12.32,49.65-18.06,15.73-5.42,31.85-8.67,48.49-4.56,22.66,5.59,35.83,30.15,28.34,52.37C438.66,306,431.08,316.23,421.94,325c-9.8,9.43-20.52,17.9-30.83,26.79l-1.22-1c0.59-1.72,1.26-3.42,1.75-5.17,2.48-8.77,5-17.53,7.32-26.34a23.25,23.25,0,0,0,.53-6.45c-0.25-9.92-5.17-15-14.84-13.43a158.53,158.53,0,0,0-27.71,7.67c-75.58,27.43-151,55.19-226.62,82.58-14.2,5.15-29.07,7.5-44.18,4.48-27.85-5.56-40.88-35.85-26.68-61.87,9.39-17.21,23.74-29.86,39-41.66,3.1-2.4,6.37-4.58,9.77-7-2.77,9.47-5.73,18.42-7.91,27.56A47.07,47.07,0,0,0,99.41,325c0.45,6.86,4.13,10.66,10.92,10.39,6.54-.26,13.35-1.07,19.48-3.24,28-9.91,55.86-20.41,83.79-30.62,2.4-.88,3.86-1.75,3.85-4.78-0.13-24.67-.08-49.33-0.1-74a24,24,0,0,0-.34-2.57c-4.55,1.59-8.89,3-13.2,4.62-24,8.78-48,17.85-72.1,26.3-15.22,5.33-31,8.16-47.08,4.41-23.92-5.59-37.2-31.12-28.43-54.18,6.37-16.75,18.63-29,31.77-40.41,6.32-5.49,13.17-10.37,20.67-16.23-2.85,9-5.79,16.62-7.56,24.48a71.18,71.18,0,0,0-1.51,18.25c0.25,6.44,4.38,10.38,10.82,9.88,7.36-.57,14.94-1.69,21.84-4.19,78.86-28.63,157.55-57.71,236.43-86.3,14.17-5.13,29.13-7.22,44.23-4.14,25.71,5.24,39.26,33.88,27.76,58.26-8.12,17.22-21.62,29.78-36,41.54C400.05,206.25,395.14,209.64,390,213.47Z" fill="white" transform="translate(-53.49 -101.25)"/></svg>